<svg width="4" height="18" viewBox="0 0 4 18" fill="none" xmlns="http://www.w3.org/2000/svg">
<path d="M0.5 15.8438C0.5 16.2416 0.658036 16.6231 0.93934 16.9044C1.22064 17.1857 1.60218 17.3438 2 17.3438C2.39782 17.3438 2.77936 17.1857 3.06066 16.9044C3.34196 16.6231 3.5 16.2416 3.5 15.8438C3.5 15.4459 3.34196 15.0644 3.06066 14.7831C2.77936 14.5018 2.39782 14.3438 2 14.3438C1.60218 14.3438 1.22064 14.5018 0.93934 14.7831C0.658036 15.0644 0.5 15.4459 0.5 15.8438ZM1.25 11.9062H2.75C2.85313 11.9062 2.9375 11.8219 2.9375 11.7188V0.84375C2.9375 0.740625 2.85313 0.65625 2.75 0.65625H1.25C1.14687 0.65625 1.0625 0.740625 1.0625 0.84375V11.7188C1.0625 11.8219 1.14687 11.9062 1.25 11.9062Z" fill="#FFC542"/>
</svg>
