<svg width="4" height="18" viewBox="0 0 4 18" fill="none" xmlns="http://www.w3.org/2000/svg">
<path d="M0.5 2.25C0.5 2.64782 0.658036 3.02936 0.93934 3.31066C1.22064 3.59196 1.60218 3.75 2 3.75C2.39782 3.75 2.77936 3.59196 3.06066 3.31066C3.34196 3.02936 3.5 2.64782 3.5 2.25C3.5 1.85218 3.34196 1.47064 3.06066 1.18934C2.77936 0.908035 2.39782 0.75 2 0.75C1.60218 0.75 1.22064 0.908035 0.93934 1.18934C0.658036 1.47064 0.5 1.85218 0.5 2.25V2.25ZM2.75 6.1875H1.25C1.14687 6.1875 1.0625 6.27187 1.0625 6.375V17.25C1.0625 17.3531 1.14687 17.4375 1.25 17.4375H2.75C2.85313 17.4375 2.9375 17.3531 2.9375 17.25V6.375C2.9375 6.27187 2.85313 6.1875 2.75 6.1875Z" fill="#50B5FF"/>
</svg>
