<svg width="16" height="16" viewBox="0 0 16 16" fill="none" xmlns="http://www.w3.org/2000/svg">
<path fill-rule="evenodd" clip-rule="evenodd" d="M14.8513 2.45104C14.9368 2.36563 15.0047 2.26421 15.051 2.15258C15.0973 2.04094 15.1212 1.92127 15.1213 1.80041C15.1213 1.67954 15.0976 1.55985 15.0514 1.44815C15.0052 1.33646 14.9375 1.23496 14.8521 1.14944C14.7667 1.06393 14.6653 0.996069 14.5536 0.949747C14.442 0.903426 14.3223 0.879546 14.2015 0.879472C14.0806 0.879398 13.9609 0.90313 13.8492 0.949314C13.7375 0.995499 13.636 1.06323 13.5505 1.14864L8.00009 6.69904L2.45129 1.14864C2.27858 0.975933 2.04433 0.878906 1.80009 0.878906C1.55584 0.878906 1.3216 0.975933 1.14889 1.14864C0.976177 1.32135 0.87915 1.55559 0.87915 1.79984C0.87915 2.04409 0.976177 2.27833 1.14889 2.45104L6.69929 7.99984L1.14889 13.5486C1.06337 13.6342 0.995534 13.7357 0.949252 13.8474C0.902971 13.9591 0.87915 14.0789 0.87915 14.1998C0.87915 14.3208 0.902971 14.4405 0.949252 14.5523C0.995534 14.664 1.06337 14.7655 1.14889 14.851C1.3216 15.0237 1.55584 15.1208 1.80009 15.1208C1.92103 15.1208 2.04078 15.097 2.15251 15.0507C2.26425 15.0044 2.36577 14.9366 2.45129 14.851L8.00009 9.30064L13.5505 14.851C13.7232 15.0235 13.9574 15.1204 14.2015 15.1202C14.4455 15.1201 14.6796 15.0229 14.8521 14.8502C15.0246 14.6775 15.1214 14.4434 15.1213 14.1993C15.1211 13.9552 15.024 13.7211 14.8513 13.5486L9.30089 7.99984L14.8513 2.45104Z" fill="#FC5A5A"/>
</svg>
